<?xml version="1.0" standalone="no"?>
<!DOCTYPE svg PUBLIC "-//W3C//DTD SVG 20010904//EN"
 "http://www.w3.org/TR/2001/REC-SVG-20010904/DTD/svg10.dtd">
<svg version="1.0" xmlns="http://www.w3.org/2000/svg"
 width="128.000000pt" height="128.000000pt" viewBox="0 0 128.000000 128.000000"
 preserveAspectRatio="xMidYMid meet">
<metadata>
Created by potrace 1.11, written by Peter Selinger 2001-2013
</metadata>
<g transform="translate(0.000000,128.000000) scale(0.100000,-0.100000)"
fill="#000000" stroke="none">
<path d="M580 1240 c0 -13 7 -20 20 -20 13 0 20 7 20 20 0 13 -7 20 -20 20
-13 0 -20 -7 -20 -20z"/>
<path d="M660 1240 c0 -13 7 -20 20 -20 13 0 20 7 20 20 0 13 -7 20 -20 20
-13 0 -20 -7 -20 -20z"/>
<path d="M580 1060 c0 -113 1 -120 20 -120 19 0 20 7 20 120 0 113 -1 120 -20
120 -19 0 -20 -7 -20 -120z"/>
<path d="M660 1060 c0 -113 1 -120 20 -120 19 0 20 7 20 120 0 113 -1 120 -20
120 -19 0 -20 -7 -20 -120z"/>
<path d="M140 1120 c0 -13 7 -20 20 -20 13 0 20 7 20 20 0 13 -7 20 -20 20
-13 0 -20 -7 -20 -20z"/>
<path d="M220 1120 c0 -19 7 -20 140 -20 l140 0 0 -80 c0 -73 2 -80 20 -80 19
0 20 7 20 100 l0 100 -160 0 c-153 0 -160 -1 -160 -20z"/>
<path d="M740 1040 c0 -93 1 -100 20 -100 18 0 20 7 20 80 l0 80 140 0 c133 0
140 1 140 20 0 19 -7 20 -160 20 l-160 0 0 -100z"/>
<path d="M1100 1120 c0 -13 7 -20 20 -20 13 0 20 7 20 20 0 13 -7 20 -20 20
-13 0 -20 -7 -20 -20z"/>
<path d="M20 1040 c0 -13 7 -20 20 -20 13 0 20 7 20 20 0 13 -7 20 -20 20 -13
0 -20 -7 -20 -20z"/>
<path d="M100 1040 c0 -19 7 -20 160 -20 l160 0 0 -40 c0 -33 3 -40 20 -40 18
0 20 7 20 60 l0 60 -180 0 c-173 0 -180 -1 -180 -20z"/>
<path d="M820 1000 c0 -53 2 -60 20 -60 17 0 20 7 20 40 l0 40 160 0 c153 0
160 1 160 20 0 19 -7 20 -180 20 l-180 0 0 -60z"/>
<path d="M1220 1040 c0 -13 7 -20 20 -20 13 0 20 7 20 20 0 13 -7 20 -20 20
-13 0 -20 -7 -20 -20z"/>
<path d="M380 880 c-19 -19 -20 -33 -20 -240 0 -207 1 -221 20 -240 19 -19 33
-20 260 -20 227 0 241 1 260 20 19 19 20 33 20 240 0 207 -1 221 -20 240 -19
19 -33 20 -260 20 -227 0 -241 -1 -260 -20z"/>
<path d="M420 300 l0 -40 -160 0 c-153 0 -160 -1 -160 -20 0 -19 7 -20 180
-20 l180 0 0 60 c0 53 -2 60 -20 60 -17 0 -20 -7 -20 -40z"/>
<path d="M500 260 l0 -80 -140 0 c-133 0 -140 -1 -140 -20 0 -19 7 -20 160
-20 l160 0 0 100 c0 93 -1 100 -20 100 -18 0 -20 -7 -20 -80z"/>
<path d="M580 220 c0 -113 1 -120 20 -120 19 0 20 7 20 120 0 113 -1 120 -20
120 -19 0 -20 -7 -20 -120z"/>
<path d="M660 220 c0 -113 1 -120 20 -120 19 0 20 7 20 120 0 113 -1 120 -20
120 -19 0 -20 -7 -20 -120z"/>
<path d="M740 240 l0 -100 160 0 c153 0 160 1 160 20 0 19 -7 20 -140 20
l-140 0 0 80 c0 73 -2 80 -20 80 -19 0 -20 -7 -20 -100z"/>
<path d="M820 280 l0 -60 180 0 c173 0 180 1 180 20 0 19 -7 20 -160 20 l-160
0 0 40 c0 33 -3 40 -20 40 -18 0 -20 -7 -20 -60z"/>
<path d="M20 240 c0 -13 7 -20 20 -20 13 0 20 7 20 20 0 13 -7 20 -20 20 -13
0 -20 -7 -20 -20z"/>
<path d="M1220 240 c0 -13 7 -20 20 -20 13 0 20 7 20 20 0 13 -7 20 -20 20
-13 0 -20 -7 -20 -20z"/>
<path d="M140 160 c0 -13 7 -20 20 -20 13 0 20 7 20 20 0 13 -7 20 -20 20 -13
0 -20 -7 -20 -20z"/>
<path d="M1100 160 c0 -13 7 -20 20 -20 13 0 20 7 20 20 0 13 -7 20 -20 20
-13 0 -20 -7 -20 -20z"/>
<path d="M580 40 c0 -13 7 -20 20 -20 13 0 20 7 20 20 0 13 -7 20 -20 20 -13
0 -20 -7 -20 -20z"/>
<path d="M660 40 c0 -13 7 -20 20 -20 13 0 20 7 20 20 0 13 -7 20 -20 20 -13
0 -20 -7 -20 -20z"/>
</g>
</svg>
